<?xml version="1.0" encoding="utf-8"?>
<!-- Generator: Adobe Illustrator 24.3.0, SVG Export Plug-In . SVG Version: 6.00 Build 0)  -->
<svg version="1.1" id="Calque_1" xmlns="http://www.w3.org/2000/svg" xmlns:xlink="http://www.w3.org/1999/xlink" x="0px" y="0px"
	 viewBox="0 0 44.2 44.2" style="enable-background:new 0 0 44.2 44.2;" xml:space="preserve">
<style type="text/css">
	.st0{clip-path:url(#SVGID_2_);fill:#010101;}
</style>
<g>
	<defs>
		<rect id="SVGID_1_" x="9.5" y="0" width="25.1" height="44.2"/>
	</defs>
	<clipPath id="SVGID_2_">
		<use xlink:href="#SVGID_1_"  style="overflow:visible;"/>
	</clipPath>
	<path class="st0" d="M18.5,12.6c0,1,0.3,1.8,1,2.5c0.7,0.7,1.5,1,2.5,1c1,0,1.8-0.3,2.5-1c0.7-0.7,1-1.5,1-2.5c0-1-0.3-1.8-1-2.5
		c-0.7-0.7-1.5-1-2.5-1c-1,0-1.8,0.3-2.5,1C18.9,10.8,18.5,11.6,18.5,12.6 M34.6,12.6c0,1.9-0.4,3.7-1.2,5.4
		c-0.8,1.7-1.9,3.1-3.3,4.3l-8,21.9l-8-21.9c-1.4-1.2-2.5-2.6-3.3-4.3c-0.8-1.7-1.2-3.5-1.2-5.4c0-3.5,1.2-6.4,3.7-8.9
		C15.6,1.2,18.6,0,22.1,0c3.5,0,6.4,1.2,8.9,3.7C33.4,6.1,34.6,9.1,34.6,12.6"/>
</g>
</svg>
