<?xml version="1.0" encoding="utf-8"?>
<!-- Generator: Adobe Illustrator 24.3.0, SVG Export Plug-In . SVG Version: 6.00 Build 0)  -->
<svg version="1.1" id="Calque_1" xmlns="http://www.w3.org/2000/svg" xmlns:xlink="http://www.w3.org/1999/xlink" x="0px" y="0px"
	 viewBox="0 0 44.2 44.2" style="enable-background:new 0 0 44.2 44.2;" xml:space="preserve">
<style type="text/css">
	.st0{clip-path:url(#SVGID_2_);fill:#010101;}
</style>
<g>
	<defs>
		<rect id="SVGID_1_" x="0" y="0.5" width="44.2" height="43.2"/>
	</defs>
	<clipPath id="SVGID_2_">
		<use xlink:href="#SVGID_1_"  style="overflow:visible;"/>
	</clipPath>
	<path class="st0" d="M40,37.9c0,0.9-0.8,1.7-1.8,1.7H6c-1,0-1.8-0.8-1.8-1.7V19h4.6c-0.2,1-0.4,2-0.4,3.1c0,7.4,6.1,13.4,13.7,13.4
		c7.6,0,13.7-6,13.7-13.4c0-1.1-0.2-2.1-0.4-3.1H40V37.9z M22.1,12.8c5.2,0,9.5,4.1,9.5,9.3c0,5.1-4.2,9.3-9.5,9.3s-9.5-4.1-9.5-9.3
		C12.6,17,16.9,12.8,22.1,12.8 M31.6,7.3c0-0.9,0.8-1.6,1.7-1.6h4c0.9,0,1.7,0.7,1.7,1.6v3.9c0,0.9-0.8,1.6-1.7,1.6h-4
		c-0.9,0-1.7-0.7-1.7-1.6V7.3z M38.5,0.5H5.7C2.6,0.5,0,3,0,6v32.2c0,3,2.6,5.5,5.7,5.5h32.8c3.1,0,5.7-2.5,5.7-5.5V6
		C44.2,3,41.6,0.5,38.5,0.5"/>
</g>
</svg>
