<?xml version="1.0" encoding="utf-8"?>
<!-- Generator: Adobe Illustrator 24.3.0, SVG Export Plug-In . SVG Version: 6.00 Build 0)  -->
<svg version="1.1" id="Calque_1" xmlns="http://www.w3.org/2000/svg" xmlns:xlink="http://www.w3.org/1999/xlink" x="0px" y="0px"
	 viewBox="0 0 44.2 44.2" style="enable-background:new 0 0 44.2 44.2;" xml:space="preserve">
<style type="text/css">
	.st0{clip-path:url(#SVGID_2_);fill:#010101;}
</style>
<g>
	<defs>
		<rect id="SVGID_1_" x="2.6" y="0" width="39" height="44.2"/>
	</defs>
	<clipPath id="SVGID_2_">
		<use xlink:href="#SVGID_1_"  style="overflow:visible;"/>
	</clipPath>
	<path class="st0" d="M7.9,0C4.9,0,2.6,2.4,2.6,5.4c0,3,2.4,5.4,5.3,5.4s5.3-2.4,5.3-5.4C13.1,2.4,10.8,0,7.9,0 M35.8,15.7
		c-3.1-1.8-7.8-2-11.1-0.4V14h-8.4v30.2h8.4V24.9l3.5-1.7c0.9-0.4,2.7-0.4,3.5,0.1c0.6,0.3,1.4,1.8,1.4,2.6v18.3h8.4V25.9
		C41.6,21.9,39.2,17.6,35.8,15.7 M3.6,44.2h8.4V14H3.6V44.2z"/>
</g>
</svg>
