<?xml version="1.0" encoding="utf-8"?>
<!-- Generator: Adobe Illustrator 24.3.0, SVG Export Plug-In . SVG Version: 6.00 Build 0)  -->
<svg version="1.1" id="Calque_1" xmlns="http://www.w3.org/2000/svg" xmlns:xlink="http://www.w3.org/1999/xlink" x="0px" y="0px"
	 viewBox="0 0 44.2 44.2" style="enable-background:new 0 0 44.2 44.2;" xml:space="preserve">
<style type="text/css">
	.st0{clip-path:url(#SVGID_2_);}
	.st1{fill:#020203;}
</style>
<g>
	<g>
		<defs>
			<rect id="SVGID_1_" x="-2.4" y="0.3" width="52.7" height="43.7"/>
		</defs>
		<clipPath id="SVGID_2_">
			<use xlink:href="#SVGID_1_"  style="overflow:visible;"/>
		</clipPath>
		<g class="st0">
			<path class="st1" d="M22.1,43.9c-12,0-21.8-9.8-21.8-21.8c0-1.8,0.2-3.7,0.7-5.4l2.2,0.6c-0.4,1.6-0.6,3.2-0.6,4.9
				c0,10.8,8.8,19.6,19.6,19.6c10.8,0,19.6-8.8,19.6-19.6c0-10.8-8.8-19.6-19.6-19.6V0.3c12,0,21.8,9.8,21.8,21.8
				C44,34.2,34.2,43.9,22.1,43.9z"/>
		</g>
	</g>
	<g>
		<path d="M16.8,29.9h-2.5V14.2h3.7c1.1,0,1.9,0.3,2.6,0.9c0.7,0.7,1.1,1.7,1.1,2.9v1.7c0,1.3-0.4,2.3-1.1,2.9
			c-0.7,0.6-1.5,0.9-2.6,0.9h-1.3V29.9z M16.8,21.2h1.3c0.4,0,0.7-0.1,0.9-0.3c0.2-0.2,0.3-0.6,0.3-1.1v-1.7c0-0.5-0.1-0.9-0.3-1.1
			c-0.2-0.2-0.5-0.3-0.9-0.3h-1.3V21.2z"/>
		<path d="M26.6,30.1c-1.1,0-1.9-0.3-2.6-0.9c-0.7-0.7-1.1-1.7-1.1-2.9v-2h2.5v2c0,0.5,0.1,0.9,0.3,1.1c0.2,0.2,0.5,0.3,0.9,0.3
			c0.4,0,0.7-0.1,0.9-0.3c0.2-0.2,0.3-0.6,0.3-1.1v-1c0-0.7-0.3-1.3-0.8-1.8c-0.1-0.1-0.4-0.3-0.9-0.6c-0.7-0.4-1.2-0.7-1.5-1
			c-0.5-0.5-1-1-1.2-1.6s-0.4-1.3-0.4-2v-0.4c0-1.2,0.4-2.2,1.1-2.9c0.7-0.6,1.5-0.9,2.6-0.9s1.9,0.3,2.6,0.9
			c0.7,0.7,1.1,1.7,1.1,2.9v1.4h-2.5v-1.4c0-0.6-0.1-0.9-0.3-1.1c-0.2-0.2-0.5-0.3-0.9-0.3c-0.4,0-0.7,0.1-0.9,0.3
			c-0.2,0.2-0.3,0.6-0.3,1.1v0.4c0,0.7,0.3,1.3,0.8,1.8c0.1,0.1,0.4,0.3,0.9,0.5c0.8,0.4,1.3,0.8,1.6,1c1.1,1,1.7,2.2,1.7,3.6v1
			c0,1.2-0.4,2.2-1.1,2.9C28.5,29.8,27.6,30.1,26.6,30.1z"/>
	</g>
</g>
</svg>
