<?xml version="1.0" encoding="utf-8"?>
<!-- Generator: Adobe Illustrator 24.3.0, SVG Export Plug-In . SVG Version: 6.00 Build 0)  -->
<svg version="1.1" id="Calque_1" xmlns="http://www.w3.org/2000/svg" xmlns:xlink="http://www.w3.org/1999/xlink" x="0px" y="0px"
	 viewBox="0 0 44.2 44.2" style="enable-background:new 0 0 44.2 44.2;" xml:space="preserve">
<style type="text/css">
	.st0{clip-path:url(#SVGID_2_);}
	.st1{fill:#020203;}
</style>
<g>
	<defs>
		<rect id="SVGID_1_" x="-8.1" y="-7.7" width="62.2" height="52.9"/>
	</defs>
	<clipPath id="SVGID_2_">
		<use xlink:href="#SVGID_1_"  style="overflow:visible;"/>
	</clipPath>
	<g class="st0">
		<path class="st1" d="M22,44c-8.7,0-16.5-5.1-20-13l2.1-0.9c3.2,7.1,10.2,11.7,18,11.7c10.8,0,19.7-8.8,19.7-19.7
			c0-10.8-8.8-19.7-19.7-19.7V0.2C34.1,0.2,44,10,44,22.1C44,34.2,34.1,44,22,44z"/>
	</g>
</g>
<g>
	<path d="M21.3,27.4h-2.8L18,29.9h-2.5l3.2-15.8h2.5l3.2,15.8h-2.5L21.3,27.4z M20.9,24.9l-1-5.7l-1,5.7H20.9z"/>
	<path d="M28,29.9h-2.5V14.1H28V29.9z"/>
</g>
</svg>
