<?xml version="1.0" encoding="utf-8"?>
<!-- Generator: Adobe Illustrator 24.3.0, SVG Export Plug-In . SVG Version: 6.00 Build 0)  -->
<svg version="1.1" id="Calque_1" xmlns="http://www.w3.org/2000/svg" xmlns:xlink="http://www.w3.org/1999/xlink" x="0px" y="0px"
	 viewBox="0 0 44.2 44.2" style="enable-background:new 0 0 44.2 44.2;" xml:space="preserve">
<style type="text/css">
	.st0{clip-path:url(#SVGID_2_);}
	.st1{fill:#020203;}
</style>
<g>
	<defs>
		<rect id="SVGID_1_" x="0.6" y="0.5" width="43.1" height="43.1"/>
	</defs>
	<clipPath id="SVGID_2_">
		<use xlink:href="#SVGID_1_"  style="overflow:visible;"/>
	</clipPath>
	<g class="st0">
		<path class="st1" d="M22.1,43.6C10.2,43.6,0.6,33.9,0.6,22c0-1.8,0.2-3.6,0.7-5.4l2.1,0.5C3,18.8,2.8,20.4,2.8,22
			c0,10.7,8.7,19.4,19.4,19.4c10.7,0,19.4-8.7,19.4-19.4c0-10.7-8.7-19.4-19.4-19.4V0.5C34,0.5,43.7,10.1,43.7,22
			C43.7,33.9,34,43.6,22.1,43.6z"/>
	</g>
	<g class="st0">
		<path d="M13.8,28.2V16c0,0,0-0.1,0.1-0.1c0.1,0,10.6-3.9,10.6-3.9s0.1-0.1,0.3,0c0.2,0.1,5.6,1.8,5.6,1.8s0.1,0,0.1,0.1
			c0,0.1,0,16.2,0,16.2s0,0.1-0.1,0.2c-0.1,0-5.6,1.7-5.6,1.7s-0.2,0.1-0.3,0l-10.6-3.8l0,0l10.7,1.3l0-14.3l-0.1,0l-6.9,1.6
			c0,0-0.1,0-0.1,0.1c0,0.1,0,9.4,0,9.4s0,0.1-0.1,0.2C17.4,26.6,13.8,28.2,13.8,28.2"/>
	</g>
</g>
</svg>
