<?xml version="1.0" encoding="utf-8"?>
<!-- Generator: Adobe Illustrator 24.3.0, SVG Export Plug-In . SVG Version: 6.00 Build 0)  -->
<svg version="1.1" id="Calque_1" xmlns="http://www.w3.org/2000/svg" xmlns:xlink="http://www.w3.org/1999/xlink" x="0px" y="0px"
	 viewBox="0 0 44.2 44.2" style="enable-background:new 0 0 44.2 44.2;" xml:space="preserve">
<style type="text/css">
	.st0{clip-path:url(#SVGID_2_);}
	.st1{fill:#020203;}
</style>
<g>
	<g>
		<defs>
			<rect id="SVGID_1_" x="-2.5" y="0.2" width="54.5" height="43.9"/>
		</defs>
		<clipPath id="SVGID_2_">
			<use xlink:href="#SVGID_1_"  style="overflow:visible;"/>
		</clipPath>
		<g class="st0">
			<path class="st1" d="M22.2,44c-4.2,0-8.3-1.2-11.8-3.5l1.1-1.7c3.2,2.1,6.9,3.2,10.7,3.2c10.9,0,19.8-8.9,19.8-19.8
				c0-10.9-8.9-19.8-19.8-19.8v-2c12,0,21.8,9.8,21.8,21.8C44.1,34.2,34.3,44,22.2,44z"/>
		</g>
	</g>
	<g>
		<path d="M18.9,30h-2.5V14.2h2.5V30z"/>
		<path d="M24.5,30h-3.7V14.2h3.7c1.1,0,1.9,0.3,2.6,0.9c0.8,0.7,1.1,1.7,1.1,2.9v8.1c0,0.6-0.1,1.2-0.3,1.6
			c-0.2,0.5-0.5,0.9-0.9,1.3C26.4,29.7,25.6,30,24.5,30z M23.2,27.5h1.3c0.5,0,0.8-0.1,0.9-0.2c0.2-0.2,0.3-0.5,0.3-1.1v-8.1
			c0-0.5-0.1-0.9-0.3-1.1c-0.2-0.2-0.5-0.3-0.9-0.3h-1.3V27.5z"/>
	</g>
</g>
</svg>
