<?xml version="1.0" encoding="utf-8"?>
<!-- Generator: Adobe Illustrator 24.3.0, SVG Export Plug-In . SVG Version: 6.00 Build 0)  -->
<svg version="1.1" id="Calque_1" xmlns="http://www.w3.org/2000/svg" xmlns:xlink="http://www.w3.org/1999/xlink" x="0px" y="0px"
	 viewBox="0 0 44.2 44.2" style="enable-background:new 0 0 44.2 44.2;" xml:space="preserve">
<style type="text/css">
	.st0{clip-path:url(#SVGID_2_);}
	.st1{fill:#020203;}
</style>
<g>
	<g>
		<defs>
			<rect id="SVGID_1_" x="-1.5" y="0.5" width="54.5" height="40.1"/>
		</defs>
		<clipPath id="SVGID_2_">
			<use xlink:href="#SVGID_1_"  style="overflow:visible;"/>
		</clipPath>
		<g class="st0">
			<path class="st1" d="M33,40.5l-1.1-1.9c6.1-3.4,9.8-9.8,9.8-16.8c0-10.6-8.6-19.2-19.2-19.2V0.5c11.8,0,21.4,9.6,21.4,21.4
				C43.9,29.6,39.7,36.7,33,40.5z"/>
		</g>
	</g>
	<g>
		<path d="M17.2,29.5h-2.4V14.1h3.6c1,0,1.9,0.3,2.5,0.9c0.7,0.7,1.1,1.6,1.1,2.9v1.7c0,1.2-0.4,2.2-1.1,2.9
			c-0.6,0.6-1.5,0.9-2.5,0.9h-1.2V29.5z M17.2,20.9h1.2c0.4,0,0.7-0.1,0.9-0.3c0.2-0.2,0.3-0.6,0.3-1.1v-1.7c0-0.5-0.1-0.9-0.3-1.1
			c-0.2-0.2-0.5-0.3-0.9-0.3h-1.2V20.9z"/>
		<path d="M30.6,29.5h-2.5l-1.3-6.2h-1.1v6.2h-2.4V14.1H27c1,0,1.9,0.3,2.5,0.9c0.7,0.7,1.1,1.6,1.1,2.9v1.6c0,1.2-0.4,2.2-1.1,2.9
			c-0.1,0.1-0.2,0.2-0.4,0.3L30.6,29.5z M28.3,17.9c0-0.5-0.1-0.9-0.3-1.1c-0.2-0.2-0.5-0.3-0.9-0.3h-1.2v4.4H27
			c0.4,0,0.7-0.1,0.9-0.3c0.2-0.2,0.3-0.6,0.3-1.1V17.9z"/>
	</g>
</g>
</svg>
