<?xml version="1.0" encoding="utf-8"?>
<!-- Generator: Adobe Illustrator 24.3.0, SVG Export Plug-In . SVG Version: 6.00 Build 0)  -->
<svg version="1.1" id="Calque_1" xmlns="http://www.w3.org/2000/svg" xmlns:xlink="http://www.w3.org/1999/xlink" x="0px" y="0px"
	 viewBox="0 0 44.2 44.2" style="enable-background:new 0 0 44.2 44.2;" xml:space="preserve">
<style type="text/css">
	.st0{clip-path:url(#SVGID_2_);fill:#010101;}
</style>
<g>
	<defs>
		<rect id="SVGID_1_" x="0" y="0.7" width="44.2" height="42.2"/>
	</defs>
	<clipPath id="SVGID_2_">
		<use xlink:href="#SVGID_1_"  style="overflow:visible;"/>
	</clipPath>
	<path class="st0" d="M14.8,7.2c-2.6,1.9-6.3,5.3-11.1,10.3v21.6h36.9V17.6c-5.5-5-9.2-8.2-11-9.6c-3-2.2-5.5-3.4-7.5-3.6
		c-0.3,0-0.5,0-0.8,0C19.4,4.5,17.2,5.4,14.8,7.2 M22.3,0.7C25,0.9,28.2,2.3,31.7,5c0.5,0.4,0.9,0.8,1.4,1.1c0.5,0.4,1,0.8,1.6,1.3
		c0.6,0.5,1.1,0.9,1.5,1.3c0.4,0.4,1,0.9,1.8,1.6c0.8,0.7,1.3,1.2,1.7,1.5c0.4,0.3,1,0.9,2,1.8c0.9,0.9,1.6,1.5,2,1.8
		c0.4,0.4,0.6,0.8,0.6,1.4V41c0,0.5-0.2,0.9-0.6,1.3c-0.4,0.4-0.8,0.5-1.3,0.5H1.9c-0.5,0-0.9-0.2-1.3-0.5C0.2,42,0,41.5,0,41V16.7
		c0-0.5,0.2-0.9,0.5-1.3C5.7,10,9.7,6.2,12.6,4.2c3.3-2.3,6.3-3.5,9.1-3.5H22.3z M13.9,25.6l1.8-2.1l0.4-0.4h0.5h11.1h0.5l0.4,0.4
		l1.8,2.1l11.3-9.7l1.5,1.8l-11.2,9.6l11.3,13l-1.7,1.5L27.1,25.4h-10L2.7,41.8L1,40.3l11.3-13L1.1,17.6l1.5-1.8L13.9,25.6z"/>
</g>
</svg>
