<?xml version="1.0" encoding="utf-8"?>
<!-- Generator: Adobe Illustrator 24.3.0, SVG Export Plug-In . SVG Version: 6.00 Build 0)  -->
<svg version="1.1" id="Calque_1" xmlns="http://www.w3.org/2000/svg" xmlns:xlink="http://www.w3.org/1999/xlink" x="0px" y="0px"
	 viewBox="0 0 44.2 44.2" style="enable-background:new 0 0 44.2 44.2;" xml:space="preserve">
<style type="text/css">
	.st0{clip-path:url(#SVGID_2_);fill:#010101;}
</style>
<g>
	<defs>
		<rect id="SVGID_1_" x="0.1" y="1.1" width="44" height="42"/>
	</defs>
	<clipPath id="SVGID_2_">
		<use xlink:href="#SVGID_1_"  style="overflow:visible;"/>
	</clipPath>
	<path class="st0" d="M12.4,25.4l-7.3,7c-0.9,0.8-1.3,1.8-1.3,2.9s0.4,2.1,1.3,2.9c0.9,0.8,1.9,1.2,3.1,1.2c1.2,0,2.2-0.4,3.1-1.2
		l7.3-7c0.9-0.9,1.4-1.9,1.3-3.2l-3.4,3.2c-0.6,0.6-1.2,0.8-2.1,0.8c-0.8,0-1.5-0.3-2.1-0.8c-0.6-0.5-0.8-1.2-0.8-2s0.3-1.4,0.8-2
		l3.4-3.2c-0.1,0-0.2,0-0.3,0C14.3,24.2,13.2,24.6,12.4,25.4 M32.9,5.8l-7.3,7c-0.9,0.9-1.4,1.9-1.3,3.2l3.4-3.3
		c0.6-0.5,1.2-0.8,2.1-0.8c0.8,0,1.5,0.3,2.1,0.8c0.6,0.5,0.8,1.2,0.8,2c0,0.8-0.3,1.4-0.8,2l-3.4,3.2c1.3,0.1,2.4-0.3,3.4-1.2
		l7.3-7c0.9-0.8,1.3-1.8,1.3-2.9S40,6.7,39.1,5.8C38.3,5,37.2,4.6,36,4.6C34.8,4.6,33.8,5,32.9,5.8 M44.1,8.8c0,2.1-0.8,4-2.3,5.4
		l-7.3,7c-1.2,1.2-2.7,1.9-4.3,2.2c-1.7,0.3-3.2,0.1-4.7-0.5l-2.5,2.4c0.7,1.4,0.8,2.9,0.6,4.5c-0.3,1.6-1,3-2.2,4.1l-7.3,7
		c-1.6,1.5-3.5,2.3-5.8,2.3c-2.2,0-4.2-0.7-5.7-2.3c-1.6-1.5-2.3-3.3-2.3-5.5c0-2.1,0.8-4,2.3-5.4l7.3-7c1.2-1.1,2.6-1.8,4.3-2.1
		c1.7-0.3,3.2-0.1,4.7,0.5l2.5-2.4c-0.7-1.4-0.8-2.9-0.6-4.5c0.3-1.6,1-3,2.2-4.1l7.3-7c1.6-1.5,3.5-2.2,5.8-2.2
		c2.2,0,4.2,0.8,5.7,2.3C43.3,4.8,44.1,6.7,44.1,8.8"/>
</g>
</svg>
