<?xml version="1.0" encoding="utf-8"?>
<!-- Generator: Adobe Illustrator 24.3.0, SVG Export Plug-In . SVG Version: 6.00 Build 0)  -->
<svg version="1.1" id="Calque_1" xmlns="http://www.w3.org/2000/svg" xmlns:xlink="http://www.w3.org/1999/xlink" x="0px" y="0px"
	 viewBox="0 0 44.2 44.2" style="enable-background:new 0 0 44.2 44.2;" xml:space="preserve">
<style type="text/css">
	.st0{clip-path:url(#SVGID_2_);fill:#010101;}
</style>
<g>
	<defs>
		<rect id="SVGID_1_" x="3.5" y="0" width="37.5" height="44.2"/>
	</defs>
	<clipPath id="SVGID_2_">
		<use xlink:href="#SVGID_1_"  style="overflow:visible;"/>
	</clipPath>
	<path class="st0" d="M41,36.1l-1.3,2l-8-11.7l2.1-0.7L41,36.1z M21.9,14.1c-1.4,1.2-2.8,2-4.2,2.5c-1.4,0.5-3.2,0.7-5.3,0.5
		c-0.3,7.6,3,13.2,9.8,16.9c1-1.8,2-3.2,3-4.2c1.1-1,2.5-1.8,4.3-2.6l8.2,12.2c-0.6,1-1.7,1.9-3.4,2.7c-2.8,1.6-5.7,2.3-8.6,2.2
		c-2.9-0.1-5.6-0.9-8.2-2.4c-2.6-1.5-4.9-3.5-6.9-6.1c-1.3-1.6-2.3-3.2-3.3-4.8c-0.9-1.5-1.6-3.1-2.1-4.6c-0.9-2.3-1.4-4.6-1.6-6.9
		c-0.2-2.3-0.1-4.5,0.4-6.6c0.5-2.1,1.3-4,2.6-5.8c1.3-1.8,2.9-3.3,5-4.5c1.6-0.9,2.9-1.5,4-1.7C17.9,5.7,20.1,10.1,21.9,14.1
		 M25.5,11.4l-1.6,1.6L17.8,0.2L20.2,0L25.5,11.4z"/>
</g>
</svg>
